<?xml version="1.0" encoding="UTF-8" standalone="no"?>
<svg
   xmlns:dc="http://purl.org/dc/elements/1.1/"
   xmlns:cc="http://creativecommons.org/ns#"
   xmlns:rdf="http://www.w3.org/1999/02/22-rdf-syntax-ns#"
   xmlns:svg="http://www.w3.org/2000/svg"
   xmlns="http://www.w3.org/2000/svg"
   xmlns:sodipodi="http://sodipodi.sourceforge.net/DTD/sodipodi-0.dtd"
   xmlns:inkscape="http://www.inkscape.org/namespaces/inkscape"
   class="android-studio-lockup"
   viewBox="0 0 60 60"
   version="1.1"
   id="svg22"
   sodipodi:docname="android-studio.svg"
   width="60"
   height="60"
   inkscape:version="1.0.2-2 (e86c870879, 2021-01-15)">
  <metadata
     id="metadata28">
    <rdf:RDF>
      <cc:Work
         rdf:about="">
        <dc:format>image/svg+xml</dc:format>
        <dc:type
           rdf:resource="http://purl.org/dc/dcmitype/StillImage" />
        <dc:title>Android Studio</dc:title>
      </cc:Work>
    </rdf:RDF>
  </metadata>
  <defs
     id="defs26" />
  <sodipodi:namedview
     pagecolor="#ffffff"
     bordercolor="#666666"
     borderopacity="1"
     objecttolerance="10"
     gridtolerance="10"
     guidetolerance="10"
     inkscape:pageopacity="0"
     inkscape:pageshadow="2"
     inkscape:window-width="2560"
     inkscape:window-height="1377"
     id="namedview24"
     showgrid="false"
     inkscape:zoom="9.0357143"
     inkscape:cx="70"
     inkscape:cy="30"
     inkscape:window-x="-8"
     inkscape:window-y="-8"
     inkscape:window-maximized="1"
     inkscape:current-layer="svg22" />
  <title
     id="title2">Android Studio</title>
  <g
     id="g863"
     transform="matrix(1.6096388,0,0,1.6096388,-152.16174,-18.269401)">
    <path
       fill="#073042"
       d="m 109.32,16.06 h -8.42 a 3.1,3.1 0 0 0 -3.09,3.1 3,3 0 0 0 3,3.09 h 8.6 z"
       id="path6" />
    <path
       fill="#4285f4"
       d="M 128.5,43.61 H 100.89 A 3.1,3.1 0 0 1 97.81,40.52 V 19.14 a 3.1,3.1 0 0 0 3.29,3.11 H 124 c 0,0 4.5,-0.39 4.5,3 z"
       id="path8" />
    <path
       d="m 113.92,28.74 a 1.72,1.72 0 1 0 0.66,3.3 1.71,1.71 0 0 0 -0.66,-3.3 z"
       id="path10" />
    <path
       fill="#3870b2"
       d="m 115.62,32.66 a 2.78,2.78 0 0 0 -1.59,-5 h 0.09 a 2.63,2.63 0 0 1 0.49,0 v -1.72 a 0.55,0.55 0 0 0 -0.26,-0.49 0.54,0.54 0 0 0 -0.55,0 0.55,0.55 0 0 0 -0.26,0.49 v 1.75 a 2.79,2.79 0 0 0 -1.22,5 l -5.09,10.88 h 3.32 l 2.35,-5 a 1.22,1.22 0 0 1 1.1,-0.69 1.2,1.2 0 0 1 1.09,0.69 l 2.42,5 h 3.36 z m -1.7,-0.49 a 1.72,1.72 0 0 1 -1.21,-2.93 1.71,1.71 0 0 1 2.93,1.21 1.72,1.72 0 0 1 -1.72,1.72 z"
       id="path12" />
    <path
       fill="#ffffff"
       d="m 107.5,17.58 h 11.81 v 2.17 H 107.5 Z"
       id="path14" />
    <path
       fill="#073042"
       d="m 113,28.74 a 1.71,1.71 0 1 1 -1.22,0.5 1.74,1.74 0 0 1 1.22,-0.5 z m 0.68,-1 v -1.8 a 0.55,0.55 0 0 0 -0.26,-0.49 0.54,0.54 0 0 0 -0.55,0 0.55,0.55 0 0 0 -0.26,0.49 v 1.75 a 2.79,2.79 0 0 0 -1.22,5 L 105,46.44 a 1.52,1.52 0 0 0 0.11,1.53 1.54,1.54 0 0 0 1.39,0.65 1.51,1.51 0 0 0 1.24,-0.9 L 112,38.57 a 1.23,1.23 0 0 1 1.1,-0.69 1.2,1.2 0 0 1 1.09,0.69 l 4.37,9.1 a 1.5116878,1.5116878 0 1 0 2.72,-1.32 L 114.7,32.66 a 2.77,2.77 0 0 0 1,-2.77 2.8,2.8 0 0 0 -2,-2.14"
       id="path16" />
    <path
       fill="#3ddc84"
       d="m 117.6,19.49 a 0.8,0.8 0 0 1 -0.58,-1.37 0.81,0.81 0 0 1 1.38,0.57 0.8,0.8 0 0 1 -0.8,0.8 m -8.89,0 a 0.8,0.8 0 0 1 -0.57,-1.37 0.81,0.81 0 1 1 1.14,1.14 0.79,0.79 0 0 1 -0.57,0.23 m 9.18,-4.85 1.6,-2.78 a 0.34,0.34 0 0 0 -0.58,-0.34 l -1.62,2.82 a 10.08,10.08 0 0 0 -8.26,0 l -1.63,-2.82 a 0.34,0.34 0 0 0 -0.29,-0.17 0.37,0.37 0 0 0 -0.29,0.17 0.34,0.34 0 0 0 0,0.34 l 1.61,2.78 a 9.52,9.52 0 0 0 -4.92,7.61 h 19.3 a 9.52,9.52 0 0 0 -4.92,-7.61"
       id="path18" />
    <path
       fill="#073042"
       d="m 125.73,28.18 h -1.27 a 0.16,0.16 0 0 0 -0.16,0.16 v 20.05 a 0.16,0.16 0 0 0 0.15,0.16 h 1.31 a 2.78,2.78 0 0 0 2.77,-2.78 V 25.4 a 2.78,2.78 0 0 1 -2.8,2.78 z"
       id="path20" />
  </g>
</svg>
