<?xml version="1.0" encoding="UTF-8" standalone="no"?>
<svg
   xmlns:dc="http://purl.org/dc/elements/1.1/"
   xmlns:cc="http://creativecommons.org/ns#"
   xmlns:rdf="http://www.w3.org/1999/02/22-rdf-syntax-ns#"
   xmlns:svg="http://www.w3.org/2000/svg"
   xmlns="http://www.w3.org/2000/svg"
   xmlns:sodipodi="http://sodipodi.sourceforge.net/DTD/sodipodi-0.dtd"
   xmlns:inkscape="http://www.inkscape.org/namespaces/inkscape"
   viewBox="0 0 128 128"
   version="1.1"
   id="svg16"
   sodipodi:docname="css3.svg"
   inkscape:version="1.0.2-2 (e86c870879, 2021-01-15)">
  <metadata
     id="metadata22">
    <rdf:RDF>
      <cc:Work
         rdf:about="">
        <dc:format>image/svg+xml</dc:format>
        <dc:type
           rdf:resource="http://purl.org/dc/dcmitype/StillImage" />
        <dc:title></dc:title>
      </cc:Work>
    </rdf:RDF>
  </metadata>
  <defs
     id="defs20" />
  <sodipodi:namedview
     pagecolor="#ffffff"
     bordercolor="#666666"
     borderopacity="1"
     objecttolerance="10"
     gridtolerance="10"
     guidetolerance="10"
     inkscape:pageopacity="0"
     inkscape:pageshadow="2"
     inkscape:window-width="2560"
     inkscape:window-height="1377"
     id="namedview18"
     showgrid="false"
     inkscape:zoom="3.9375"
     inkscape:cx="137.37258"
     inkscape:cy="85.748991"
     inkscape:window-x="-8"
     inkscape:window-y="-8"
     inkscape:window-maximized="1"
     inkscape:current-layer="svg16" />
  <g
     id="g853"
     transform="translate(-11.947,-25.893)">
    <path
       fill="#1572b6"
       d="M 29.787715,141.09681 19.516,25.893 H 132.378 L 122.09741,141.07778 75.877863,153.893 Z"
       id="path4"
       style="stroke-width:1.26858" />
    <path
       fill="#33a9dc"
       d="M 75.948904,144.09827 113.29471,133.7441 122.08092,35.313496 H 75.948904 Z"
       id="path6"
       style="stroke-width:1.26858" />
    <path
       fill="#ffffff"
       d="M 75.947635,77.051137 H 94.644008 L 95.936694,62.58295 H 75.947635 V 48.453476 h 35.430245 l -0.33871,3.790525 -3.47211,38.935342 H 75.947635 Z"
       id="path8"
       style="stroke-width:1.26858" />
    <path
       fill="#ebebeb"
       d="m 76.03263,113.74616 -0.06216,0.0178 -15.735501,-4.24975 -1.007254,-11.268821 H 45.046228 l 1.980258,22.184971 28.941447,8.03394 0.06597,-0.019 v -14.69907 z"
       id="path10"
       style="stroke-width:1.26858" />
    <path
       fill="#ffffff"
       d="m 93.443929,90.58184 -1.702438,18.92218 -15.758335,4.25356 v 14.70034 l 28.965554,-8.0276 0.21312,-2.38747 2.45851,-27.46101 z"
       id="path12"
       style="stroke-width:1.26858" />
    <path
       fill="#ebebeb"
       d="M 75.99711,48.453476 V 62.581682 H 41.868428 L 41.584266,59.406419 40.941094,52.244001 40.602383,48.453476 Z M 75.94763,77.052405 V 91.18188 H 60.411302 l -0.282894,-3.175263 -0.64444,-7.163686 -0.338711,-3.790526 z"
       id="path14"
       style="stroke-width:1.26858" />
  </g>
</svg>
