<?xml version="1.0" encoding="UTF-8" standalone="no"?>
<svg
   xmlns:dc="http://purl.org/dc/elements/1.1/"
   xmlns:cc="http://creativecommons.org/ns#"
   xmlns:rdf="http://www.w3.org/1999/02/22-rdf-syntax-ns#"
   xmlns:svg="http://www.w3.org/2000/svg"
   xmlns="http://www.w3.org/2000/svg"
   xmlns:sodipodi="http://sodipodi.sourceforge.net/DTD/sodipodi-0.dtd"
   xmlns:inkscape="http://www.inkscape.org/namespaces/inkscape"
   aria-label="Docker"
   viewBox="0 0 512 512"
   version="1.1"
   id="svg8"
   sodipodi:docname="docker.svg"
   inkscape:version="1.0.2-2 (e86c870879, 2021-01-15)">
  <metadata
     id="metadata14">
    <rdf:RDF>
      <cc:Work
         rdf:about="">
        <dc:format>image/svg+xml</dc:format>
        <dc:type
           rdf:resource="http://purl.org/dc/dcmitype/StillImage" />
        <dc:title></dc:title>
      </cc:Work>
    </rdf:RDF>
  </metadata>
  <defs
     id="defs12" />
  <sodipodi:namedview
     pagecolor="#ffffff"
     bordercolor="#666666"
     borderopacity="1"
     objecttolerance="10"
     gridtolerance="10"
     guidetolerance="10"
     inkscape:pageopacity="0"
     inkscape:pageshadow="2"
     inkscape:window-width="2560"
     inkscape:window-height="1377"
     id="namedview10"
     showgrid="false"
     inkscape:zoom="1.3921165"
     inkscape:cx="318.69747"
     inkscape:cy="293.02938"
     inkscape:window-x="-8"
     inkscape:window-y="-8"
     inkscape:window-maximized="1"
     inkscape:current-layer="svg8" />
  <g
     id="g841"
     transform="translate(-66.528769,-37.044685)">
    <path
       stroke="#2496ed"
       stroke-width="47.9837"
       d="m 356.28859,255.16284 h 53.03459 m -116.17101,0 h 53.03459 m -114.90827,0 h 53.03458 m -114.90827,0 h 51.77186 m -114.90828,0 h 53.03459 m 10.10183,-58.0855 h 51.77186 m 10.10183,0 h 53.03458 m 8.8391,0 h 53.03459 m -53.03459,-58.0855 h 53.03459"
       id="path4" />
    <path
       fill="#2496ed"
       d="m 578.52877,257.6883 c 0,0 -22.72911,-21.46638 -69.45006,-13.89001 -5.05091,-36.61912 -44.19549,-58.08551 -44.19549,-58.08551 0,0 -36.61912,44.1955 -10.10183,93.4419 -7.57637,3.78818 -20.20365,8.8391 -39.14457,8.8391 H 68.386534 c -6.313641,23.99183 -6.313641,183.0956 167.942866,183.0956 125.0101,0 218.45199,-58.0855 262.64748,-164.15468 65.66188,5.05091 79.55189,-49.2464 79.55189,-49.2464"
       id="path6"
       style="stroke-width:1.26273" />
  </g>
</svg>
