<?xml version="1.0" encoding="UTF-8" standalone="no"?>
<svg
   xmlns:dc="http://purl.org/dc/elements/1.1/"
   xmlns:cc="http://creativecommons.org/ns#"
   xmlns:rdf="http://www.w3.org/1999/02/22-rdf-syntax-ns#"
   xmlns:svg="http://www.w3.org/2000/svg"
   xmlns="http://www.w3.org/2000/svg"
   xmlns:sodipodi="http://sodipodi.sourceforge.net/DTD/sodipodi-0.dtd"
   xmlns:inkscape="http://www.inkscape.org/namespaces/inkscape"
   id="Layer_1"
   data-name="Layer 1"
   viewBox="0 0 256 256"
   version="1.1"
   sodipodi:docname="ionic.svg"
   width="256"
   height="256"
   inkscape:version="1.0.2-2 (e86c870879, 2021-01-15)">
  <metadata
     id="metadata26">
    <rdf:RDF>
      <cc:Work
         rdf:about="">
        <dc:format>image/svg+xml</dc:format>
        <dc:type
           rdf:resource="http://purl.org/dc/dcmitype/StillImage" />
        <dc:title> ionic-logo-landscape</dc:title>
      </cc:Work>
    </rdf:RDF>
  </metadata>
  <sodipodi:namedview
     pagecolor="#ffffff"
     bordercolor="#666666"
     borderopacity="1"
     objecttolerance="10"
     gridtolerance="10"
     guidetolerance="10"
     inkscape:pageopacity="0"
     inkscape:pageshadow="2"
     inkscape:window-width="1490"
     inkscape:window-height="1198"
     id="namedview24"
     showgrid="false"
     inkscape:zoom="2.0539382"
     inkscape:cx="188.30293"
     inkscape:cy="166.95181"
     inkscape:window-x="570"
     inkscape:window-y="199"
     inkscape:window-maximized="0"
     inkscape:current-layer="g873"
     inkscape:document-rotation="0" />
  <defs
     id="defs4">
    <style
       type="text/css"
       id="style2"><![CDATA[
	.cls-1{fill:#478aff;}
      ]]></style>
  </defs>
  <title
     id="title6"> ionic-logo-landscape</title>
  <g
     id="g873"
     transform="translate(-92.41028,14.865115)">
    <g
       id="g861"
       transform="matrix(1.7412597,0,0,1.7412597,92.426725,-14.795068)">
      <path
         class="cls-1"
         d="m 107.75,222.5 a 33.5,33.5 0 1 0 33.5,33.5 33.54,33.54 0 0 0 -33.5,-33.5 z"
         transform="translate(-34.25,-182.5)"
         id="path8" />
      <circle
         class="cls-1"
         cx="121.6"
         cy="27.709999"
         r="15.26"
         id="circle10" />
      <path
         class="cls-1"
         d="m 174.64,225.55 -0.64,-1.4 -1,1.16 a 23,23 0 0 1 -9.21,6.34 l -1,0.36 0.4,1 A 60.09,60.09 0 1 1 133.48,201.8 l 0.94,0.45 0.41,-1 a 23,23 0 0 1 6.78,-8.89 l 1.2,-1 -1.37,-0.71 a 72.68,72.68 0 0 0 -33.7,-8.19 73.51,73.51 0 1 0 66.89,43 z"
         transform="translate(-34.25,-182.5)"
         id="path12" />
    </g>
  </g>
</svg>
