<?xml version="1.0" encoding="UTF-8" standalone="no"?>
<svg
   xmlns:dc="http://purl.org/dc/elements/1.1/"
   xmlns:cc="http://creativecommons.org/ns#"
   xmlns:rdf="http://www.w3.org/1999/02/22-rdf-syntax-ns#"
   xmlns:svg="http://www.w3.org/2000/svg"
   xmlns="http://www.w3.org/2000/svg"
   xmlns:sodipodi="http://sodipodi.sourceforge.net/DTD/sodipodi-0.dtd"
   xmlns:inkscape="http://www.inkscape.org/namespaces/inkscape"
   viewBox="0 0 128 128"
   version="1.1"
   id="svg14"
   sodipodi:docname="java.svg"
   inkscape:version="1.0.2-2 (e86c870879, 2021-01-15)">
  <metadata
     id="metadata20">
    <rdf:RDF>
      <cc:Work
         rdf:about="">
        <dc:format>image/svg+xml</dc:format>
        <dc:type
           rdf:resource="http://purl.org/dc/dcmitype/StillImage" />
        <dc:title></dc:title>
      </cc:Work>
    </rdf:RDF>
  </metadata>
  <defs
     id="defs18" />
  <sodipodi:namedview
     pagecolor="#ffffff"
     bordercolor="#666666"
     borderopacity="1"
     objecttolerance="10"
     gridtolerance="10"
     guidetolerance="10"
     inkscape:pageopacity="0"
     inkscape:pageshadow="2"
     inkscape:window-width="2560"
     inkscape:window-height="1377"
     id="namedview16"
     showgrid="false"
     inkscape:zoom="7.875"
     inkscape:cx="90.489107"
     inkscape:cy="64"
     inkscape:window-x="-8"
     inkscape:window-y="-8"
     inkscape:window-maximized="1"
     inkscape:current-layer="svg14" />
  <g
     id="g857"
     transform="matrix(1.4884452,0,0,1.4884452,-31.065065,-1.9543274)">
    <path
       fill="#0074bd"
       d="m 52.581,67.817 c 0,0 -3.284,1.911 2.341,2.557 6.814,0.778 10.297,0.666 17.805,-0.753 0,0 1.979,1.237 4.735,2.309 -16.836,7.213 -38.104,-0.418 -24.881,-4.113 z m -2.059,-9.415 c 0,0 -3.684,2.729 1.945,3.311 7.28,0.751 13.027,0.813 22.979,-1.103 0,0 1.373,1.396 3.536,2.157 -20.352,5.954 -43.021,0.469 -28.46,-4.365 z"
       id="path2" />
    <path
       fill="#ea2d2e"
       d="m 67.865,42.431 c 4.151,4.778 -1.088,9.074 -1.088,9.074 0,0 10.533,-5.437 5.696,-12.248 -4.519,-6.349 -7.982,-9.502 10.771,-20.378 0.001,0 -29.438,7.35 -15.379,23.552 z"
       id="path4" />
    <path
       fill="#0074bd"
       d="m 90.132,74.781 c 0,0 2.432,2.005 -2.678,3.555 -9.716,2.943 -40.444,3.831 -48.979,0.117 -3.066,-1.335 2.687,-3.187 4.496,-3.576 1.887,-0.409 2.965,-0.334 2.965,-0.334 -3.412,-2.403 -22.055,4.719 -9.469,6.762 34.324,5.563 62.567,-2.506 53.665,-6.524 z M 54.162,48.647 c 0,0 -15.629,3.713 -5.534,5.063 4.264,0.57 12.758,0.439 20.676,-0.225 6.469,-0.543 12.961,-1.704 12.961,-1.704 0,0 -2.279,0.978 -3.93,2.104 -15.874,4.175 -46.533,2.23 -37.706,-2.038 7.463,-3.611 13.533,-3.2 13.533,-3.2 z M 82.2,64.317 c 16.135,-8.382 8.674,-16.438 3.467,-15.353 -1.273,0.266 -1.845,0.496 -1.845,0.496 0,0 0.475,-0.744 1.378,-1.063 10.302,-3.62 18.223,10.681 -3.322,16.345 0,0 0.247,-0.224 0.322,-0.425 z"
       id="path6" />
    <path
       fill="#ea2d2e"
       d="m 72.474,1.313 c 0,0 8.935,8.939 -8.476,22.682 C 50.036,35.022 60.814,41.308 63.992,48.493 55.842,41.139 49.864,34.665 53.874,28.641 59.763,19.799 76.078,15.51 72.474,1.313 Z"
       id="path8" />
    <path
       fill="#0074bd"
       d="m 55.749,87.039 c 15.484,0.99 39.269,-0.551 39.832,-7.878 0,0 -1.082,2.777 -12.799,4.981 -13.218,2.488 -29.523,2.199 -39.191,0.603 0,0 1.98,1.64 12.158,2.294 z"
       id="path10" />
  </g>
</svg>
