<?xml version="1.0" encoding="UTF-8" standalone="no"?>
<svg
   xmlns:dc="http://purl.org/dc/elements/1.1/"
   xmlns:cc="http://creativecommons.org/ns#"
   xmlns:rdf="http://www.w3.org/1999/02/22-rdf-syntax-ns#"
   xmlns:svg="http://www.w3.org/2000/svg"
   xmlns="http://www.w3.org/2000/svg"
   xmlns:sodipodi="http://sodipodi.sourceforge.net/DTD/sodipodi-0.dtd"
   xmlns:inkscape="http://www.inkscape.org/namespaces/inkscape"
   viewBox="0 0 128 128"
   version="1.1"
   id="svg6"
   sodipodi:docname="jquery.svg"
   inkscape:version="1.0.2-2 (e86c870879, 2021-01-15)">
  <metadata
     id="metadata12">
    <rdf:RDF>
      <cc:Work
         rdf:about="">
        <dc:format>image/svg+xml</dc:format>
        <dc:type
           rdf:resource="http://purl.org/dc/dcmitype/StillImage" />
        <dc:title></dc:title>
      </cc:Work>
    </rdf:RDF>
  </metadata>
  <defs
     id="defs10" />
  <sodipodi:namedview
     pagecolor="#ffffff"
     bordercolor="#666666"
     borderopacity="1"
     objecttolerance="10"
     gridtolerance="10"
     guidetolerance="10"
     inkscape:pageopacity="0"
     inkscape:pageshadow="2"
     inkscape:window-width="2560"
     inkscape:window-height="1377"
     id="namedview8"
     showgrid="false"
     inkscape:zoom="7.875"
     inkscape:cx="64"
     inkscape:cy="64"
     inkscape:window-x="-8"
     inkscape:window-y="-8"
     inkscape:window-maximized="1"
     inkscape:current-layer="svg6" />
  <path
     fill="#0868ac"
     d="M 8.1293567,30.062317 C -3.2042379,46.968069 -1.7937036,68.965548 6.8652719,86.932211 l 0.633584,1.276933 0.405432,0.809683 0.2528176,0.46565 0.4516783,0.838486 c 0.268232,0.491251 0.5441728,0.979301 0.8262784,1.470552 L 9.9067822,92.6 c 0.3129378,0.521652 0.6320418,1.040107 0.9588548,1.55696 l 0.408515,0.654468 c 0.451678,0.699272 0.912606,1.395344 1.38895,2.081816 l 0.04008,0.0528 0.234317,0.328035 c 0.411598,0.588861 0.835529,1.17132 1.265627,1.748981 l 0.476344,0.628866 c 0.383849,0.500854 0.773865,0.996904 1.170048,1.494554 l 0.447054,0.55366 c 0.53184,0.64967 1.076013,1.29933 1.629435,1.933 l 0.03237,0.0352 0.0632,0.072 c 0.54109,0.61287 1.094512,1.21293 1.657182,1.81299 l 0.530299,0.55526 c 0.434722,0.45445 0.877152,0.90089 1.322664,1.34574 l 0.54109,0.53445 c 0.596586,0.58246 1.197797,1.15532 1.812881,1.71218 l 0.02774,0.0256 0.316021,0.27843 c 0.54109,0.48805 1.091429,0.9681 1.646392,1.44335 l 0.681373,0.56486 c 0.453221,0.37604 0.911065,0.74887 1.371993,1.11371 l 0.735328,0.57766 c 0.508717,0.38884 1.022058,0.77128 1.540024,1.14732 l 0.559589,0.41285 0.155696,0.11521 c 0.490218,0.35204 0.99431,0.68967 1.49532,1.02731 l 0.647458,0.44805 c 0.770782,0.50405 1.552356,1.0049 2.341638,1.48815 l 0.647457,0.37924 c 0.581172,0.34723 1.165424,0.68967 1.757386,1.0225 l 0.972728,0.52166 1.257918,0.67847 0.289815,0.14561 0.514883,0.25763 c 0.658249,0.32644 1.322664,0.64807 1.993244,0.9585 l 0.420848,0.19522 c 0.7677,0.34884 1.543107,0.68327 2.324682,1.00491 l 0.567296,0.23042 c 0.722995,0.29123 1.456781,0.57446 2.193649,0.84329 l 0.275939,0.0992 c 0.807781,0.29443 1.624812,0.56486 2.446466,0.83209 l 0.590421,0.18242 c 0.835528,0.26243 1.663348,0.57286 2.525084,0.73928 54.807319,10.37386 70.727059,-34.185957 70.727059,-34.185957 -13.37153,18.081877 -37.103944,22.850367 -59.590768,17.541017 -0.852486,-0.20002 -1.678765,-0.47685 -2.509669,-0.72968 l -0.625876,-0.19841 a 69.051369,71.67623 0 0 1 -2.417176,-0.81609 l -0.331437,-0.12322 a 76.364559,79.267416 0 0 1 -2.130443,-0.82088 l -0.598128,-0.24322 c -0.772325,-0.31684 -1.541566,-0.64807 -2.300018,-0.99211 l -0.459385,-0.21282 a 85.399677,88.645989 0 0 1 -1.940832,-0.9361 l -0.56113,-0.28002 c -0.504092,-0.25443 -1.002019,-0.52486 -1.501486,-0.79209 l -1.000477,-0.54565 c -0.608918,-0.33604 -1.205504,-0.68807 -1.799006,-1.04651 l -0.607378,-0.35044 a 89.723769,93.134454 0 0 1 -2.34318,-1.49135 l -0.632042,-0.436847 a 62.45655,64.83072 0 0 1 -1.666433,-1.15052 l -0.538007,-0.39204 A 83.557506,86.73379 0 0 1 39.780789,97.05004 L 39.08246,96.501183 c -0.477887,-0.379239 -0.952688,-0.761679 -1.421325,-1.153719 l -0.633584,-0.528056 c -0.598126,-0.508852 -1.188547,-1.024105 -1.771259,-1.55056 l -0.194237,-0.168017 a 84.473197,87.684289 0 0 1 -1.862212,-1.756983 l -0.524132,-0.524854 a 51.115248,53.058299 0 0 1 -1.33808,-1.361741 l -0.52413,-0.544036 C 30.255454,88.321155 29.708198,87.721093 29.171733,87.11143 l -0.0817,-0.09122 A 64.704153,67.163763 0 0 1 27.425139,85.053616 L 26.988875,84.51596 A 68.84634,71.463407 0 0 1 25.791079,82.978202 L 25.351733,82.410143 A 80.884431,83.959102 0 0 1 23.967407,80.497944 C 11.483804,62.820912 6.9978463,38.440785 16.976404,18.419509 m 26.33149,-2.60187 c -8.194965,12.24127 -7.750994,28.631768 -1.356578,41.57711 a 52.023231,54.000797 0 0 0 3.624222,6.280652 c 1.227087,1.828989 2.589831,4.002014 4.219266,5.469366 0.59042,0.675271 1.208588,1.334539 1.839089,1.981007 l 0.484051,0.497651 c 0.612002,0.616064 1.234794,1.222526 1.877627,1.811387 l 0.07707,0.06882 0.0185,0.0192 c 0.712204,0.648067 1.44753,1.270531 2.193648,1.884995 l 0.497927,0.403242 c 0.749201,0.595262 1.512276,1.180923 2.295391,1.73938 l 0.06629,0.0528 1.048266,0.715275 0.496384,0.340836 c 0.559589,0.372838 1.125344,0.734475 1.70189,1.081712 l 0.240484,0.147216 c 0.496384,0.29603 0.998935,0.58726 1.503027,0.872089 l 0.534924,0.28803 1.051347,0.566458 0.158784,0.0752 c 0.722993,0.368038 1.450612,0.724875 2.195188,1.06091 l 0.484053,0.208023 c 0.595045,0.260825 1.194714,0.516853 1.799008,0.756878 l 0.770782,0.29443 c 0.548799,0.211221 1.097596,0.404842 1.652559,0.596861 l 0.746118,0.248026 c 0.787741,0.252827 1.567773,0.574461 2.387886,0.716875 C 118.23108,92.848029 127.99999,59.028522 127.99999,59.028522 119.19456,72.194688 102.14022,78.475339 83.942031,73.57243 A 53.532424,55.56736 0 0 1 81.544903,72.853957 L 80.824991,72.612331 A 44.705417,46.40481 0 0 1 79.14931,72.013869 L 78.3924,71.721038 A 59.616985,61.883214 0 0 1 76.587227,70.96416 L 76.101633,70.751338 A 50.532536,52.453437 0 0 1 73.89411,69.685627 l -1.106844,-0.58406 -0.638208,-0.340836 C 71.677335,68.4951 71.208698,68.219871 70.74777,67.938243 L 70.41325,67.741422 A 47.403157,49.205101 0 0 1 68.717527,66.66611 l -0.5118,-0.353635 -1.097595,-0.755279 a 57.599075,59.788598 0 0 1 -2.287683,-1.73618 L 64.305566,63.398572 C 56.340293,56.871496 50.026039,47.94897 47.02461,37.832721 43.878273,27.340434 44.556562,15.563214 50.00754,6.0038224 M 72.895172,5.1749363 c -4.831269,7.3799647 -5.30607,16.5473157 -1.953165,24.6985597 3.534811,8.652097 10.77863,15.438401 19.234121,18.657935 l 1.051347,0.376038 0.46247,0.153616 c 0.497927,0.163218 0.992768,0.352037 1.507651,0.451247 23.365514,4.686886 29.702894,-12.444489 31.389374,-14.967952 -5.55118,8.296861 -14.88074,10.289067 -26.328412,7.403968 A 29.03848,30.142325 0 0 1 95.489905,41.060257 34.381548,35.688499 0 0 1 92.200203,39.64251 34.207352,35.507681 0 0 1 86.433205,35.990931 C 76.189498,27.922894 69.827455,12.534099 76.511685,0"
     id="path2"
     style="stroke-width:1.57059" />
</svg>
