<?xml version="1.0" encoding="UTF-8" standalone="no"?>
<svg
   xmlns:dc="http://purl.org/dc/elements/1.1/"
   xmlns:cc="http://creativecommons.org/ns#"
   xmlns:rdf="http://www.w3.org/1999/02/22-rdf-syntax-ns#"
   xmlns:svg="http://www.w3.org/2000/svg"
   xmlns="http://www.w3.org/2000/svg"
   xmlns:sodipodi="http://sodipodi.sourceforge.net/DTD/sodipodi-0.dtd"
   xmlns:inkscape="http://www.inkscape.org/namespaces/inkscape"
   viewBox="0 0 128 128"
   version="1.1"
   id="svg4"
   sodipodi:docname="laravel.svg"
   inkscape:version="1.0.2-2 (e86c870879, 2021-01-15)">
  <metadata
     id="metadata10">
    <rdf:RDF>
      <cc:Work
         rdf:about="">
        <dc:format>image/svg+xml</dc:format>
        <dc:type
           rdf:resource="http://purl.org/dc/dcmitype/StillImage" />
        <dc:title></dc:title>
      </cc:Work>
    </rdf:RDF>
  </metadata>
  <defs
     id="defs8" />
  <sodipodi:namedview
     pagecolor="#ffffff"
     bordercolor="#666666"
     borderopacity="1"
     objecttolerance="10"
     gridtolerance="10"
     guidetolerance="10"
     inkscape:pageopacity="0"
     inkscape:pageshadow="2"
     inkscape:window-width="2560"
     inkscape:window-height="1377"
     id="namedview6"
     showgrid="false"
     inkscape:zoom="5.5684659"
     inkscape:cx="105.76325"
     inkscape:cy="85.520016"
     inkscape:window-x="-8"
     inkscape:window-y="-8"
     inkscape:window-maximized="1"
     inkscape:current-layer="svg4" />
  <path
     id="path2"
     d="m 16.31638,0 -0.514662,0.08254669 c -1.147875,0.090566 -2.278192,0.26288666 -3.388768,0.56839598 A 16.532301,16.591692 0 0 0 5.9150698,4.1344324 16.565992,16.625503 0 0 0 2.9845604,7.426884 16.535912,16.595314 0 0 0 0.39010763,13.693391 l 0.55461171,0.969339 c 1.24293026,2.084226 2.48774186,4.165829 3.73187486,6.247639 l 3.2736168,5.462263 3.01511,5.049526 c 1.565395,2.620376 3.132407,5.24047 4.695395,7.860846 l 3.203114,5.360847 4.669546,7.806601 5.715315,9.582544 c 1.647213,2.759244 3.297229,5.517903 4.946849,8.275939 l 0.220905,0.323114 c 0.239442,0.07487 0.430133,0.01171 0.627461,-0.03538 2.174227,-0.524075 4.349506,-1.045584 6.523733,-1.566037 3.52665,-0.845283 7.052116,-1.688887 10.577563,-2.535377 l 5.524961,-1.325471 c 3.563951,-0.854943 7.129912,-1.70632 10.695065,-2.563678 3.60486,-0.864604 7.208912,-1.734396 10.812569,-2.601415 1.821681,-0.438339 3.643326,-0.875395 5.46621,-1.311319 l 10.577564,-2.53066 11.522279,-2.754715 0.62042,-0.167453 -0.16921,-0.339623 c -1.0456,-1.487697 -2.09635,-2.973415 -3.14436,-4.459905 L 100.94629,44.030641 97.625669,39.323095 94.448405,34.808946 91.304042,30.3514 88.053926,25.742911 84.869612,21.238196 83.191678,18.85848 a 4.3881589,4.4039229 0 0 1 -0.599262,-1.183958 c -0.330886,-1.03366 0.0482,-1.722755 0.648614,-2.231132 a 3.6313309,3.644376 0 0 1 1.323076,-0.714622 20.914445,20.989577 0 0 1 2.046891,-0.521226 c 1.384911,-0.262038 2.778058,-0.485132 4.168985,-0.716981 1.569004,-0.262038 3.140433,-0.513962 4.711844,-0.773585 0.99266,-0.164226 1.985997,-0.33566 2.97986,-0.504717 l 4.049134,-0.683961 a 1116.159,1120.1686 0 0 1 3.93398,-0.655661 l 4.29354,-0.705188 2.97985,-0.5023584 c 1.13103,-0.1895848 2.26593,-0.3800753 3.39818,-0.5660375 1.41257,-0.2306414 2.82098,-0.4641318 4.23478,-0.6863204 0.83985,-0.1316226 1.68421,-0.1778301 2.51924,0.063679 0.62689,0.1823395 1.19548,0.4758678 1.72729,0.8514148 l 0.73558,0.5141507 c 0.0734,-0.1702641 -0.0342,-0.2606791 -0.0822,-0.3584904 A 16.91974,16.980522 0 0 0 121.92284,3.9386775 16.717598,16.777654 0 0 0 116.17931,0.77830117 C 114.92797,0.37981075 113.64145,0.19571651 112.32993,0.09669768 L 111.68601,0 Z m 106.04589,15.179239 c -0.25343,-1.69e-4 -0.52017,0.03543 -0.79901,0.108486 -0.48611,0.128 -0.98367,0.207755 -1.4782,0.299528 -1.62555,0.298264 -3.25079,0.593302 -4.87634,0.889151 -2.37757,0.433509 -4.75361,0.870849 -7.13238,1.299528 -1.88185,0.340528 -3.76648,0.675 -5.64952,1.007076 l -7.557756,1.32547 c -0.317652,0.05555 -0.637953,0.112097 -0.94237,0.209906 -0.445192,0.143698 -0.574652,0.424113 -0.371307,0.844339 0.167248,0.342944 0.373112,0.672 0.596912,0.981132 1.561785,2.161509 3.13344,4.317376 4.702445,6.474054 2.163396,2.974188 4.328576,5.949187 6.493186,8.922167 1.83131,2.51532 3.66539,5.030695 5.49911,7.544808 1.44025,1.976754 2.88262,3.948979 4.32408,5.924526 l 0.28437,0.346698 c 4.14751,-1.030037 8.28974,-2.056886 12.50223,-3.101413 l 0.0283,-0.648586 c 0,-8.703997 -10e-4,-17.40805 0.007,-26.110839 0,-0.384 -0.0943,-0.69334 -0.33371,-0.997642 -1.05282,-1.331924 -2.08243,-2.67964 -3.12322,-4.021224 l -0.23029,-0.283019 c -0.53695,-0.681962 -1.18321,-1.013641 -1.9435,-1.014151 z M 0.00234989,30.615555 v 48.464604 c 0,-0.0326 0.24429153,-0.06162 0.39950717,-0.09906 l 3.21486494,-0.790094 12.041644,-2.87264 5.289956,-1.252357 c 0.880761,-0.210114 1.765563,-0.411907 2.639105,-0.648586 0.777282,-0.21132 0.875383,-0.471678 0.474708,-1.176886 -0.578751,-1.019169 -1.168312,-2.030471 -1.755486,-3.044811 L 17.148296,60.280639 11.989943,51.363189 6.7399353,42.290079 2.2442944,34.530648 0.3760071,31.172159 C 0.25568715,30.966876 1.2055736,30.724235 0.00234989,30.615555 Z M 127.66867,58.363185 c -1.89146,0.455245 -3.78752,0.891246 -5.72471,1.405661 0.20575,0.365886 5.51653,7.560412 5.82576,7.900939 l 0.19506,0.108486 0.0211,-0.438679 v -3.030659 c 0.002,-1.756981 0.007,-3.514244 0.002,-5.271224 0,-0.214944 0.0587,-0.443019 -0.0869,-0.660377 z m -13.81828,3.367924 c -0.0668,2.83e-4 -0.13774,0.01249 -0.21384,0.03301 l -0.17392,0.04953 -9.04532,2.20283 -5.400413,1.313678 -10.565812,2.575471 -10.453011,2.549527 c -3.621706,0.880302 -7.242622,1.757641 -10.861919,2.63915 -3.562747,0.868226 -7.126471,1.739056 -10.688017,2.60849 L 46.114981,78.22167 c -1.820479,0.44317 -3.639885,0.885754 -5.459162,1.332546 -0.268318,0.06521 -0.557355,0.07981 -0.841316,0.29717 l 0.244405,0.464623 c 1.525689,2.644527 3.048595,5.28713 4.577892,7.929242 1.730237,2.992301 3.464403,5.985375 5.200655,8.974054 1.909518,3.284525 3.823339,6.566885 5.736466,9.851415 1.098544,1.88618 2.191297,3.77665 3.299467,5.65801 a 654.45774,656.80881 0 0 0 3.722475,6.25236 c 0.375405,0.62188 0.801873,1.21507 1.231424,1.79952 0.288774,0.39004 0.645794,0.72163 1.066922,0.97642 0.433161,0.26325 0.90146,0.34694 1.393579,0.23585 0.255083,-0.058 0.505353,-0.14304 0.752014,-0.22877 l 0.907119,-0.33727 c 3.296834,-1.13268 6.593254,-2.26366 9.893699,-3.39151 2.573697,-0.8803 5.148502,-1.75545 7.724605,-2.62971 2.556853,-0.86943 5.116053,-1.7356 7.672906,-2.60142 l 7.614149,-2.58018 c 2.59536,-0.88031 5.19036,-1.76115 7.78571,-2.64387 3.18493,-1.08438 6.3715,-2.17275 9.55764,-3.25472 3.07184,-1.04332 6.145,-2.08058 9.21924,-3.12028 0.1877,-0.064 0.39585,-0.0918 0.55226,-0.29953 l 0.0188,-0.44811 c 0,-6.395167 -10e-4,-12.792297 0.007,-19.188672 a 1.3957402,1.4007542 0 0 0 -0.29633,-0.89151 c -0.96378,-1.300528 -1.91062,-2.610886 -2.86237,-3.917452 -1.19118,-1.63381 -2.38328,-3.265922 -3.57207,-4.90094 -1.63878,-2.256905 -3.27521,-4.516678 -4.91159,-6.773583 -0.66539,-0.916528 -1.33955,-1.826169 -1.9905,-2.752357 -0.14619,-0.209208 -0.30946,-0.302736 -0.50996,-0.301887 z m -84.326745,20.745275 -0.55226,0.108486 c -1.092528,0.282566 -2.182292,0.568735 -3.273616,0.856131 -1.518469,0.400905 -3.034719,0.809056 -4.554392,1.207547 -3.409938,0.891169 -6.819819,1.77634 -10.229757,2.665094 C 7.4447247,88.216887 4.0494137,89.123924 0.57811178,90.023546 0.36754824,90.079093 1.2032237,90.098172 0,90.134399 v 21.620271 c 1.2032237,0.12559 0.1638822,0.35449 0.19035404,0.57548 0.0794083,0.64 0.10310034,1.28464 0.2162052,1.91981 a 16.155693,16.21373 0 0 0 2.67435246,6.49528 c 2.0021656,2.88845 4.6364554,4.95388 7.9032093,6.21697 1.167128,0.45043 2.372591,0.76645 3.616724,0.91981 l 1.259625,0.0566 c 0.196127,0.0254 0.383246,0.0613 0.575761,0.0613 h 38.850985 c -0.06256,0 -0.118219,-0.17992 -0.188004,-0.30189 -1.529299,-2.61796 -3.073693,-5.18841 -4.584943,-7.81604 a 1339.9129,1344.7264 0 0 1 -5.661264,-9.94103 c -2.002165,-3.55501 -3.986095,-7.1122 -5.97382,-10.676879 A 6000.3977,6021.9534 0 0 1 33.22497,89.096711 c -1.135843,-2.050414 -2.264731,-4.101677 -3.398169,-6.153299 z m 98.253125,30.186306 c -0.22139,-0.0169 -0.41941,0.0962 -0.62277,0.16981 -1.5738,0.56151 -3.14741,1.12591 -4.72123,1.69104 a 38346.084,38483.838 0 0 0 -10.74442,3.86793 c -1.98772,0.71607 -3.97544,1.43963 -5.96677,2.15329 -4.05607,1.45389 -8.114768,2.90116 -12.173243,4.35142 -2.352303,0.84045 -4.704945,1.59933 -7.054841,2.44339 -0.643726,0.23306 -1.277581,0.66038 -1.915289,0.66038 h 26.987953 l 0.5828,-0.0566 a 14.607143,14.659617 0 0 0 2.03515,-0.21697 16.534708,16.594107 0 0 0 7.44964,-3.40095 16.799418,16.859767 0 0 0 4.13608,-4.84905 c 1.10697,-1.93932 1.76455,-4.01914 2.07979,-6.2217 0.0277,-0.18958 0.086,-0.39515 -0.0728,-0.59198 z"
     style="fill:#fd4f31;fill-opacity:1;stroke-width:1.20538" />
</svg>
