<?xml version="1.0" encoding="UTF-8" standalone="no"?>
<svg
   xmlns:dc="http://purl.org/dc/elements/1.1/"
   xmlns:cc="http://creativecommons.org/ns#"
   xmlns:rdf="http://www.w3.org/1999/02/22-rdf-syntax-ns#"
   xmlns:svg="http://www.w3.org/2000/svg"
   xmlns="http://www.w3.org/2000/svg"
   xmlns:sodipodi="http://sodipodi.sourceforge.net/DTD/sodipodi-0.dtd"
   xmlns:inkscape="http://www.inkscape.org/namespaces/inkscape"
   viewBox="0 0 128 128"
   version="1.1"
   id="svg46"
   sodipodi:docname="mongodb.svg"
   inkscape:version="1.0.2-2 (e86c870879, 2021-01-15)">
  <metadata
     id="metadata52">
    <rdf:RDF>
      <cc:Work
         rdf:about="">
        <dc:format>image/svg+xml</dc:format>
        <dc:type
           rdf:resource="http://purl.org/dc/dcmitype/StillImage" />
        <dc:title></dc:title>
      </cc:Work>
    </rdf:RDF>
  </metadata>
  <defs
     id="defs50" />
  <sodipodi:namedview
     pagecolor="#ffffff"
     bordercolor="#666666"
     borderopacity="1"
     objecttolerance="10"
     gridtolerance="10"
     guidetolerance="10"
     inkscape:pageopacity="0"
     inkscape:pageshadow="2"
     inkscape:window-width="2560"
     inkscape:window-height="1377"
     id="namedview48"
     showgrid="false"
     inkscape:zoom="7.875"
     inkscape:cx="64"
     inkscape:cy="69.079365"
     inkscape:window-x="-8"
     inkscape:window-y="-8"
     inkscape:window-maximized="1"
     inkscape:current-layer="svg46" />
  <g
     id="g893"
     transform="matrix(1.3737443,0,0,1.3737443,-23.920054,-4.3149303)">
    <path
       fill="#439934"
       fill-rule="evenodd"
       d="m 82.362,33.544 c 1.227,3.547 2.109,7.168 2.4,10.92 0.36,4.656 0.196,9.28 -0.786,13.859 l -0.126,0.366 c -0.308,10e-4 -0.622,-0.038 -0.923,0.009 -2.543,0.4 -5.083,0.814 -7.624,1.226 -2.627,0.426 -5.256,0.835 -7.878,1.289 -0.929,0.16 -2.079,-0.031 -2.454,1.253 l -0.18,0.061 0.127,-7.678 -0.129,-18.526 1.224,-0.21 c 2.001,-0.327 4.002,-0.66 6.006,-0.979 2.39,-0.379 4.782,-0.749 7.174,-1.119 1.056,-0.162 2.113,-0.313 3.169,-0.471 z"
       clip-rule="evenodd"
       id="path14" />
    <path
       fill="#45a538"
       fill-rule="evenodd"
       d="M 62.265,84.911 C 60.974,83.801 59.638,82.74 58.401,81.572 51.743,75.292 46.872,67.899 44.473,58.986 43.812,56.534 43.372,54.041 43.23,51.507 c -0.1,-1.774 -0.243,-3.563 -0.117,-5.328 0.333,-4.693 1.012,-9.341 2.388,-13.862 l 0.076,-0.105 c 0.134,0.178 0.326,0.336 0.394,0.537 1.344,3.956 2.677,7.916 4.004,11.879 4.169,12.451 8.333,24.905 12.509,37.354 0.082,0.243 0.293,0.442 0.445,0.661 z"
       clip-rule="evenodd"
       id="path16" />
    <path
       fill="#46a037"
       fill-rule="evenodd"
       d="m 82.362,33.544 c -1.057,0.157 -2.114,0.309 -3.169,0.471 -2.392,0.37 -4.784,0.74 -7.174,1.119 -2.003,0.318 -4.004,0.651 -6.006,0.979 l -1.224,0.21 -0.01,-0.798 C 64.738,34.869 64.67,34.213 64.661,33.557 L 64.524,21.003 c -0.032,-2.619 -0.08,-5.238 -0.133,-7.856 A 198.423,198.423 0 0 0 64.25,8.267 C 64.21,7.394 64.069,6.525 64.013,5.652 63.98,5.15 64.024,4.644 64.035,4.14 c 0.624,1.209 1.235,2.427 1.876,3.627 1.013,1.897 2.628,3.295 4.083,4.82 5.746,6.031 9.825,13.039 12.368,20.957 z"
       clip-rule="evenodd"
       id="path18" />
    <path
       fill="#409433"
       fill-rule="evenodd"
       d="m 64.792,62.527 0.18,-0.061 c 0.375,-1.284 1.525,-1.093 2.454,-1.253 2.622,-0.454 5.251,-0.863 7.878,-1.289 2.541,-0.411 5.081,-0.825 7.624,-1.226 0.301,-0.047 0.615,-0.008 0.923,-0.009 -0.475,1.696 -0.849,3.429 -1.452,5.078 -0.685,1.87 -1.513,3.696 -2.392,5.486 a 37.595,37.595 0 0 1 -4.853,7.458 c -1.466,1.762 -3.1,3.393 -4.737,5.002 -0.906,0.889 -1.972,1.614 -2.966,2.414 l -0.258,-0.176 -0.927,-0.792 -0.959,-2.104 a 31.65,31.65 0 0 1 -1.065,-7.516 l 0.018,-0.428 0.131,-1.854 c 0.043,-0.633 0.101,-1.265 0.128,-1.898 0.096,-2.276 0.182,-4.554 0.273,-6.832 z"
       clip-rule="evenodd"
       id="path20" />
    <path
       fill="#4faa41"
       fill-rule="evenodd"
       d="m 64.792,62.527 c -0.09,2.278 -0.176,4.557 -0.273,6.835 -0.027,0.634 -0.084,1.266 -0.128,1.898 l -0.584,0.221 C 62.509,67.66 61.21,63.879 59.94,60.089 57.839,53.818 55.764,47.538 53.666,41.265 A 3423.013,3423.013 0 0 0 48.548,26.089 c -0.081,-0.236 -0.311,-0.422 -0.471,-0.631 l 3.74,-6.877 c 0.129,0.223 0.298,0.432 0.379,0.672 1.73,5.12 3.457,10.241 5.169,15.367 2.228,6.67 4.441,13.343 6.667,20.014 0.089,0.266 0.235,0.512 0.375,0.811 l 0.512,-0.596 z"
       clip-rule="evenodd"
       id="path22" />
    <path
       fill="#4aa73c"
       fill-rule="evenodd"
       d="m 48.076,25.458 c 0.161,0.209 0.391,0.395 0.471,0.631 a 3379.774,3379.774 0 0 1 5.118,15.176 c 2.098,6.273 4.173,12.553 6.274,18.824 1.27,3.79 2.569,7.57 3.867,11.392 l 0.584,-0.221 -0.131,1.854 -0.119,0.427 c -0.203,2.029 -0.374,4.062 -0.622,6.087 -0.124,1.015 -0.389,2.011 -0.59,3.015 C 62.777,82.424 62.565,82.225 62.483,81.982 58.306,69.533 54.143,57.079 49.974,44.628 A 3010.791,3010.791 0 0 0 45.97,32.749 C 45.902,32.548 45.71,32.39 45.576,32.212 Z"
       clip-rule="evenodd"
       id="path24" />
    <path
       fill="#57ae47"
       fill-rule="evenodd"
       d="m 64.918,54.849 -0.512,0.596 C 64.266,55.146 64.12,54.9 64.031,54.634 61.805,47.963 59.592,41.29 57.364,34.62 A 4618.057,4618.057 0 0 0 52.195,19.253 c -0.081,-0.24 -0.25,-0.449 -0.379,-0.672 l 4.625,-6.084 c 0.146,0.194 0.354,0.367 0.429,0.586 1.284,3.76 2.556,7.523 3.822,11.289 1.182,3.518 2.346,7.04 3.542,10.552 0.08,0.235 0.359,0.401 0.545,0.601 l 0.01,0.798 z"
       clip-rule="evenodd"
       id="path26" />
    <path
       fill="#60b24f"
       fill-rule="evenodd"
       d="M 64.779,35.525 C 64.592,35.326 64.314,35.16 64.234,34.924 63.039,31.412 61.874,27.89 60.692,24.372 A 2495.581,2495.581 0 0 0 56.87,13.083 c -0.075,-0.219 -0.283,-0.392 -0.429,-0.586 1.504,-1.473 2.961,-2.999 4.526,-4.404 1.391,-1.248 2.509,-2.586 2.561,-4.559 l 0.11,-0.393 0.396,0.998 c -0.01,0.504 -0.055,1.01 -0.022,1.512 0.057,0.873 0.198,1.742 0.237,2.615 0.073,1.625 0.108,3.253 0.141,4.88 0.053,2.618 0.101,5.237 0.133,7.856 l 0.137,12.554 c 0.01,0.657 0.079,1.313 0.119,1.969 z"
       clip-rule="evenodd"
       id="path28" />
    <path
       fill="#a9aa88"
       fill-rule="evenodd"
       d="m 62.929,82.642 c 0.201,-1.004 0.466,-2 0.59,-3.015 0.248,-2.024 0.419,-4.058 0.622,-6.087 l 0.051,-0.008 0.05,0.009 a 31.65,31.65 0 0 0 1.065,7.516 c -0.135,0.178 -0.324,0.335 -0.396,0.535 -0.555,1.566 -1.079,3.145 -1.637,4.71 -0.076,0.214 -0.29,0.381 -0.439,0.568 l -0.571,-1.96 z"
       clip-rule="evenodd"
       id="path30" />
    <path
       fill="#b6b598"
       fill-rule="evenodd"
       d="m 62.835,86.871 c 0.149,-0.188 0.363,-0.354 0.439,-0.568 0.558,-1.565 1.082,-3.144 1.637,-4.71 0.071,-0.2 0.261,-0.357 0.396,-0.535 l 0.959,2.104 c -0.189,0.268 -0.451,0.511 -0.556,0.81 l -1.836,5.392 c -0.076,0.217 -0.333,0.369 -0.507,0.552 z"
       clip-rule="evenodd"
       id="path32" />
    <path
       fill="#c2c1a7"
       fill-rule="evenodd"
       d="m 63.367,89.915 c 0.173,-0.183 0.431,-0.335 0.507,-0.552 l 1.836,-5.392 c 0.104,-0.299 0.367,-0.542 0.556,-0.81 l 0.928,0.791 c -0.448,0.443 -0.697,0.955 -0.547,1.602 l -0.282,0.923 c -0.128,0.158 -0.314,0.296 -0.377,0.477 -0.641,1.836 -1.252,3.682 -1.898,5.517 -0.082,0.232 -0.309,0.415 -0.468,0.621 z"
       clip-rule="evenodd"
       id="path34" />
    <path
       fill="#cecdb7"
       fill-rule="evenodd"
       d="m 63.621,93.091 c 0.16,-0.206 0.387,-0.389 0.468,-0.621 0.646,-1.835 1.258,-3.681 1.898,-5.517 0.063,-0.181 0.249,-0.318 0.377,-0.477 l -0.389,4.236 c -0.104,0.12 -0.254,0.225 -0.304,0.364 l -1.294,3.708 c -0.091,0.253 -0.265,0.479 -0.401,0.716 -0.121,-0.158 -0.337,-0.311 -0.347,-0.475 -0.038,-0.642 -0.011,-1.289 -0.008,-1.934 z"
       clip-rule="evenodd"
       id="path36" />
    <path
       fill="#dbdac7"
       fill-rule="evenodd"
       d="m 63.977,95.501 c 0.136,-0.237 0.31,-0.463 0.401,-0.716 l 1.294,-3.708 c 0.05,-0.14 0.201,-0.244 0.304,-0.364 l 0.01,2.78 -0.931,2.387 z"
       clip-rule="evenodd"
       id="path38" />
    <path
       fill="#ebe9dc"
       fill-rule="evenodd"
       d="m 65.055,95.88 0.931,-2.387 0.192,2.824 z"
       clip-rule="evenodd"
       id="path40" />
    <path
       fill="#cecdb7"
       fill-rule="evenodd"
       d="m 66.646,85.554 c -0.149,-0.646 0.099,-1.158 0.547,-1.602 l 0.258,0.176 z"
       clip-rule="evenodd"
       id="path42" />
    <path
       fill="#4faa41"
       fill-rule="evenodd"
       d="m 64.242,73.542 -0.05,-0.009 -0.051,0.008 0.119,-0.427 z"
       clip-rule="evenodd"
       id="path44" />
  </g>
</svg>
