<?xml version="1.0" encoding="UTF-8" standalone="no"?>
<svg
   xmlns:dc="http://purl.org/dc/elements/1.1/"
   xmlns:cc="http://creativecommons.org/ns#"
   xmlns:rdf="http://www.w3.org/1999/02/22-rdf-syntax-ns#"
   xmlns:svg="http://www.w3.org/2000/svg"
   xmlns="http://www.w3.org/2000/svg"
   xmlns:sodipodi="http://sodipodi.sourceforge.net/DTD/sodipodi-0.dtd"
   xmlns:inkscape="http://www.inkscape.org/namespaces/inkscape"
   width="32"
   height="32"
   version="1.1"
   id="svg8"
   sodipodi:docname="spark.svg"
   inkscape:version="1.0.2-2 (e86c870879, 2021-01-15)">
  <metadata
     id="metadata14">
    <rdf:RDF>
      <cc:Work
         rdf:about="">
        <dc:format>image/svg+xml</dc:format>
        <dc:type
           rdf:resource="http://purl.org/dc/dcmitype/StillImage" />
        <dc:title></dc:title>
      </cc:Work>
    </rdf:RDF>
  </metadata>
  <defs
     id="defs12" />
  <sodipodi:namedview
     pagecolor="#ffffff"
     bordercolor="#666666"
     borderopacity="1"
     objecttolerance="10"
     gridtolerance="10"
     guidetolerance="10"
     inkscape:pageopacity="0"
     inkscape:pageshadow="2"
     inkscape:window-width="2560"
     inkscape:window-height="1377"
     id="namedview10"
     showgrid="false"
     inkscape:zoom="7.875"
     inkscape:cx="25.021008"
     inkscape:cy="7.4726673"
     inkscape:window-x="-8"
     inkscape:window-y="-8"
     inkscape:window-maximized="1"
     inkscape:current-layer="svg8"
     inkscape:document-rotation="0" />
  <g
     id="g859"
     transform="translate(32.380953,3.9365082)">
    <circle
       style="fill:#e25a1c;fill-opacity:1;stroke-width:197.746"
       id="path845"
       cx="-16.380953"
       cy="12.063492"
       r="16" />
    <g
       id="g853"
       transform="translate(-33.302453,-3.9370694)"
       style="fill:#ffffff;fill-opacity:1">
      <path
         d="m 26.588,15.625 1.751,0.456 c -0.34,-0.655 -0.596,-1.212 -0.911,-1.732 -0.195,-0.321 -0.159,-0.526 0.088,-0.793 0.461,-0.498 0.883,-1.032 1.321,-1.551 l -0.064,-0.129 c -0.539,0.139 -1.092,0.238 -1.613,0.428 -0.549,0.2 -0.894,0.125 -1.147,-0.447 -0.201,-0.453 -0.511,-0.858 -0.866,-1.434 -0.134,0.7 -0.281,1.246 -0.333,1.8 -0.053,0.575 -0.279,0.891 -0.871,1.011 -0.557,0.113 -1.091,0.34 -1.801,0.57 l 1.882,0.808 c -0.381,0.249 -0.704,0.468 -1.036,0.67 -0.085,0.052 -0.225,0.104 -0.299,0.069 -0.616,-0.287 -1.269,-0.527 -1.818,-0.914 -0.519,-0.366 -0.387,-1.031 0.229,-1.282 a 22.69,22.69 0 0 1 2.247,-0.752 c 0.349,-0.101 0.496,-0.272 0.541,-0.628 0.075,-0.587 0.197,-1.169 0.313,-1.751 0.038,-0.192 0.093,-0.388 0.181,-0.561 0.351,-0.692 0.939,-0.741 1.378,-0.103 0.326,0.474 0.637,0.964 0.897,1.476 0.215,0.422 0.466,0.5 0.905,0.357 a 14.216,14.216 0 0 1 2.033,-0.526 c 0.293,-0.05 0.622,0.115 0.935,0.183 -0.084,0.312 -0.089,0.682 -0.267,0.924 -0.468,0.637 -1.001,1.228 -1.53,1.818 -0.223,0.249 -0.273,0.449 -0.091,0.755 0.33,0.556 0.654,1.125 0.891,1.724 0.11,0.279 0.129,0.728 -0.027,0.939 -0.156,0.21 -0.6,0.332 -0.888,0.291 -0.581,-0.083 -1.2,-0.209 -1.69,-0.504 -0.276,-0.166 -0.327,-0.705 -0.48,-1.077 l 0.141,-0.095 z M 9.035,21.264 8.77,23.09 H 7.645 c 0.116,-0.934 0.226,-1.837 0.341,-2.739 0.059,-0.464 0.118,-0.927 0.191,-1.389 0.218,-1.363 1.353,-2.462 2.666,-2.591 1.975,-0.193 3.242,1.545 2.458,3.372 -0.728,1.697 -2.448,2.328 -4.268,1.521 z m 3.282,-2.435 c 0.007,-0.748 -0.537,-1.299 -1.286,-1.3 -0.903,-0.002 -1.698,0.789 -1.695,1.687 0.003,0.734 0.566,1.281 1.318,1.278 0.869,-0.003 1.654,-0.79 1.663,-1.666 z m -9.002,1.382 1.19,-0.636 c 0.116,0.19 0.206,0.362 0.319,0.517 0.322,0.441 0.833,0.495 1.276,0.145 C 6.51,19.913 6.535,19.6 6.143,19.128 5.81,18.727 5.453,18.344 5.093,17.965 4.547,17.389 4.236,16.736 4.566,15.957 4.923,15.113 5.588,14.632 6.512,14.535 7.391,14.443 7.99,14.855 8.45,15.632 L 7.361,16.461 C 7.178,16.266 7.042,15.994 6.854,15.95 6.56,15.882 6.169,15.868 5.929,16.013 c -0.354,0.215 -0.133,0.533 0.085,0.772 0.339,0.373 0.67,0.756 1.03,1.107 0.608,0.594 0.869,1.288 0.596,2.107 -0.296,0.888 -0.926,1.453 -1.847,1.642 -1.306,0.268 -2.062,-0.168 -2.48,-1.431 z m 15.64,1.296 h -1.161 c 0.101,-0.776 0.215,-1.518 0.289,-2.264 0.061,-0.617 -0.037,-1.204 -0.621,-1.565 -0.473,-0.292 -1.215,-0.185 -1.716,0.242 -0.499,0.425 -0.76,0.959 -0.582,1.631 0.227,0.857 1.151,1.195 2.008,0.739 0.155,-0.083 0.301,-0.183 0.499,-0.306 -0.036,0.249 -0.067,0.444 -0.092,0.638 -0.11,0.857 -0.253,0.991 -1.1,1.03 -1.831,0.086 -2.97,-1.392 -2.425,-3.145 a 3.087,3.087 0 0 1 3.149,-2.144 c 1.179,0.084 2.113,1.035 2.065,2.217 -0.039,0.967 -0.201,1.928 -0.313,2.926 z"
         id="path2"
         style="fill:#ffffff;fill-opacity:1" />
      <path
         d="m 24.07,17.694 2.012,-2.204 c 0.284,0.732 0.358,1.349 -0.332,1.86 -0.311,0.23 -0.545,0.564 -0.828,0.866 l 2.364,3.326 c -0.525,0 -0.964,0.027 -1.396,-0.016 -0.137,-0.013 -0.285,-0.191 -0.378,-0.327 -0.504,-0.74 -0.992,-1.491 -1.58,-2.381 -0.112,0.782 -0.256,1.407 -0.277,2.036 -0.018,0.574 -0.242,0.766 -0.781,0.681 -0.172,-0.027 -0.35,-0.018 -0.586,-0.029 0.144,-1.142 0.28,-2.244 0.423,-3.345 0.085,-0.66 0.217,-1.317 0.259,-1.979 0.027,-0.431 0.191,-0.7 0.559,-0.896 0.281,-0.15 0.542,-0.338 0.909,-0.571 l -0.366,2.978 z M 22.251,17.65 c -0.212,0 -0.355,0.008 -0.496,-10e-4 -0.422,-0.027 -0.627,0.177 -0.678,0.588 -0.114,0.909 -0.28,1.814 -0.349,2.726 -0.036,0.477 -0.198,0.641 -0.653,0.575 -0.173,-0.025 -0.352,-0.004 -0.602,-0.004 0.11,-0.886 0.21,-1.717 0.316,-2.547 0.043,-0.339 0.09,-0.677 0.148,-1.013 0.172,-1.008 0.748,-1.489 1.777,-1.493 0.18,-0.001 0.36,0.004 0.539,0.011 0.032,10e-4 0.064,0.028 0.128,0.057 l -0.129,1.102 z"
         id="path4"
         style="fill:#ffffff;fill-opacity:1" />
    </g>
  </g>
</svg>
