<?xml version="1.0" encoding="UTF-8" standalone="no"?>
<svg
   xmlns:dc="http://purl.org/dc/elements/1.1/"
   xmlns:cc="http://creativecommons.org/ns#"
   xmlns:rdf="http://www.w3.org/1999/02/22-rdf-syntax-ns#"
   xmlns:svg="http://www.w3.org/2000/svg"
   xmlns="http://www.w3.org/2000/svg"
   xmlns:sodipodi="http://sodipodi.sourceforge.net/DTD/sodipodi-0.dtd"
   xmlns:inkscape="http://www.inkscape.org/namespaces/inkscape"
   version="1.1"
   id="Layer_1"
   x="0px"
   y="0px"
   viewBox="0 0 128 128"
   xml:space="preserve"
   sodipodi:docname="spring-logo.svg"
   width="128"
   height="128"
   inkscape:version="1.0.2-2 (e86c870879, 2021-01-15)"><metadata
   id="metadata33"><rdf:RDF><cc:Work
       rdf:about=""><dc:format>image/svg+xml</dc:format><dc:type
         rdf:resource="http://purl.org/dc/dcmitype/StillImage" /><dc:title></dc:title></cc:Work></rdf:RDF></metadata><defs
   id="defs31" /><sodipodi:namedview
   pagecolor="#ffffff"
   bordercolor="#666666"
   borderopacity="1"
   objecttolerance="10"
   gridtolerance="10"
   guidetolerance="10"
   inkscape:pageopacity="0"
   inkscape:pageshadow="2"
   inkscape:window-width="2560"
   inkscape:window-height="1377"
   id="namedview29"
   showgrid="false"
   inkscape:zoom="3.3509934"
   inkscape:cx="129.06621"
   inkscape:cy="144.04407"
   inkscape:window-x="-8"
   inkscape:window-y="-8"
   inkscape:window-maximized="1"
   inkscape:current-layer="g910"
   inkscape:document-rotation="0" />
<style
   type="text/css"
   id="style2">
	.st0{fill:#6DB33F;}
	.st1{fill:#FFFFFF;}
</style>








<g
   id="g910"
   transform="matrix(1,0,0,0.99999888,-72.670548,0.0196483)"><path
     class="st0"
     d="m 189.217,7.528309 c -1.71231,4.222892 -4.0832,8.31382 -6.84924,12.008851 C 157.86855,-5.9321621 117.43169,-6.5919891 92.142194,17.953576 66.852691,42.49914 66.062393,83.012517 90.561599,108.34988 c 0.790295,0.92375 1.712305,1.71555 2.634315,2.50734 l 2.370895,2.11145 c 26.870101,22.69804 67.175241,19.26694 89.830431,-7.654 8.69326,-10.293298 13.9619,-23.225908 14.88392,-36.686378 C 202.12518,52.660477 197.25169,32.073873 189.217,7.528309 Z M 102.41605,111.51705 c -1.84402,2.37537 -5.268646,2.6393 -7.639541,0.79179 -2.37089,-1.84752 -2.634315,-5.27862 -0.790295,-7.65399 1.84403,-2.37538 5.268645,-2.63931 7.639536,-0.7918 2.23918,1.84752 2.63433,5.27862 0.7903,7.654 z m 86.4058,-19.134988 c -15.67421,20.982498 -49.39357,13.856368 -70.86329,14.912088 0,0 -3.81977,0.26393 -7.63954,0.7918 0,0 1.44887,-0.65983 3.29291,-1.31966 15.14735,-5.27861 22.26003,-6.33434 31.48015,-11.085093 17.25483,-8.84168 34.50965,-28.240595 37.93426,-48.299337 -6.5858,19.266952 -26.60667,35.894592 -44.78349,42.624827 -12.51304,4.618785 -35.0365,9.10561 -35.0365,9.10561 l -0.92201,-0.52786 c -15.279081,-7.52203 -15.805941,-40.77731 12.11788,-51.466507 12.2496,-4.750755 23.84063,-2.111447 37.14395,-5.278617 14.09364,-3.299135 30.42644,-13.856367 37.01226,-27.712735 7.3761,22.302153 16.3328,56.877089 0.26342,78.255484 z"
     id="path4"
     style="stroke-width:1.3184" /></g>



</svg>
