<svg xmlns="http://www.w3.org/2000/svg" viewBox="0 0 24 24"><path fill="#47848F" d="M8.741 5.159c-3.137-.572-5.616.026-6.605 1.738-.737 1.277-.527 2.971.511 4.781a.321.321 0 10.558-.32c-.935-1.631-1.117-3.092-.512-4.14.821-1.422 3.033-1.955 5.932-1.427a.321.321 0 10.125-.631l-.009-.001zm-4.463 8.72c1.268 1.394 2.916 2.701 4.795 3.786 4.549 2.627 9.393 3.329 11.78 1.701a.322.322 0 00-.363-.532c-2.136 1.457-6.737.79-11.096-1.727-1.823-1.053-3.418-2.318-4.641-3.661a.321.321 0 10-.482.425l.007.008z"/><path fill="#47848F" d="M20.091 13.488c2.054-2.426 2.771-4.866 1.785-6.574-.726-1.257-2.26-1.921-4.299-1.947a.322.322 0 00-.009.643c1.834.024 3.156.596 3.75 1.625.819 1.419.18 3.595-1.718 5.837a.322.322 0 00.483.425l.008-.009zm-5.277-8.222c-1.857.398-3.833 1.176-5.731 2.271-4.697 2.712-7.761 6.71-7.335 9.609a.322.322 0 00.639-.077l-.003-.017c-.378-2.574 2.526-6.364 7.02-8.958 1.841-1.063 3.755-1.816 5.544-2.2a.322.322 0 00-.134-.628z"/><path fill="#47848F" d="M7.205 19.156C8.279 22.154 10.035 24 12.011 24c1.44 0 2.773-.982 3.813-2.711a.323.323 0 00-.096-.445.323.323 0 00-.455.113c-.934 1.554-2.082 2.399-3.262 2.399-1.641 0-3.207-1.647-4.2-4.418a.322.322 0 00-.61.204l.004.014zm9.808-.587c.556-1.776.854-3.825.854-5.961 0-5.328-1.865-9.921-4.521-11.1a.321.321 0 00-.261.588c2.369 1.052 4.139 5.411 4.139 10.512 0 2.071-.289 4.056-.825 5.769a.322.322 0 00.609.207l.005-.015zm6.057-.314a1.54 1.54 0 10-3.079-.001v.001a1.54 1.54 0 003.079 0zm-.643 0a.897.897 0 01-1.792.002v-.001a.895.895 0 011.792-.001zM2.469 19.794a1.54 1.54 0 10.001-3.079h-.001a1.54 1.54 0 000 3.079zm0-.643a.896.896 0 110-1.792.896.896 0 010 1.792z"/><path fill="#47848F" d="M12.011 3.078a1.539 1.539 0 100-3.078 1.539 1.539 0 000 3.078zm0-.643a.896.896 0 110-1.792.896.896 0 010 1.792zm.235 11.263a1.114 1.114 0 11-.47-2.178 1.115 1.115 0 01.47 2.178z"/></svg>