<?xml version="1.0" encoding="UTF-8" standalone="no"?>
<svg
   xmlns:dc="http://purl.org/dc/elements/1.1/"
   xmlns:cc="http://creativecommons.org/ns#"
   xmlns:rdf="http://www.w3.org/1999/02/22-rdf-syntax-ns#"
   xmlns:svg="http://www.w3.org/2000/svg"
   xmlns="http://www.w3.org/2000/svg"
   xmlns:sodipodi="http://sodipodi.sourceforge.net/DTD/sodipodi-0.dtd"
   xmlns:inkscape="http://www.inkscape.org/namespaces/inkscape"
   id="Layer_1"
   data-name="Layer 1"
   viewBox="0 0 250.69 250.69"
   version="1.1"
   sodipodi:docname="Ionic.svg"
   width="250.69"
   height="250.69"
   inkscape:version="1.0.2-2 (e86c870879, 2021-01-15)">
  <metadata
     id="metadata26">
    <rdf:RDF>
      <cc:Work
         rdf:about="">
        <dc:format>image/svg+xml</dc:format>
        <dc:type
           rdf:resource="http://purl.org/dc/dcmitype/StillImage" />
        <dc:title> ionic-logo-landscape</dc:title>
      </cc:Work>
    </rdf:RDF>
  </metadata>
  <sodipodi:namedview
     pagecolor="#ffffff"
     bordercolor="#666666"
     borderopacity="1"
     objecttolerance="10"
     gridtolerance="10"
     guidetolerance="10"
     inkscape:pageopacity="0"
     inkscape:pageshadow="2"
     inkscape:window-width="2560"
     inkscape:window-height="1377"
     id="namedview24"
     showgrid="false"
     inkscape:zoom="2.0539382"
     inkscape:cx="188.30293"
     inkscape:cy="166.95181"
     inkscape:window-x="-8"
     inkscape:window-y="-8"
     inkscape:window-maximized="1"
     inkscape:current-layer="g873"
     inkscape:document-rotation="0" />
  <defs
     id="defs4">
    <style
       type="text/css"
       id="style2"><![CDATA[
	.cls-1{fill:#478aff;}
      ]]></style>
  </defs>
  <title
     id="title6"> ionic-logo-landscape</title>
  <g
     id="g873"
     transform="translate(-92.41028,14.865115)">
    <g
       id="g861"
       transform="translate(144.25472,-6)">
      <path
         class="cls-1"
         d="m 107.75,222.5 a 33.5,33.5 0 1 0 33.5,33.5 33.54,33.54 0 0 0 -33.5,-33.5 z"
         transform="translate(-34.25,-182.5)"
         id="path8" />
      <circle
         class="cls-1"
         cx="121.6"
         cy="27.709999"
         r="15.26"
         id="circle10" />
      <path
         class="cls-1"
         d="m 174.64,225.55 -0.64,-1.4 -1,1.16 a 23,23 0 0 1 -9.21,6.34 l -1,0.36 0.4,1 A 60.09,60.09 0 1 1 133.48,201.8 l 0.94,0.45 0.41,-1 a 23,23 0 0 1 6.78,-8.89 l 1.2,-1 -1.37,-0.71 a 72.68,72.68 0 0 0 -33.7,-8.19 73.51,73.51 0 1 0 66.89,43 z"
         transform="translate(-34.25,-182.5)"
         id="path12" />
    </g>
    <g
       id="g856"
       transform="translate(-92.419723,120)">
      <rect
         class="cls-1"
         x="184.83"
         y="41.5"
         width="15.5"
         height="64"
         id="rect14" />
      <rect
         class="cls-1"
         x="352.10001"
         y="41.5"
         width="15.5"
         height="64"
         id="rect16" />
      <path
         class="cls-1"
         d="m 350.56,222.5 c -10.9,0 -19.32,6.57 -21.25,8.38 v 0 l -1,-6.88 h -12.9 v 64 h 15.5 v -38.75 c 0,-7.56 10.32,-13.82 17.87,-13.82 7.55,0 13.22,7.22 13.22,15.82 V 288 h 15.5 V 252.78 C 377.45,236 370.21,222.5 350.56,222.5 Z"
         transform="translate(-34.25,-182.5)"
         id="path18" />
      <path
         class="cls-1"
         d="m 442.54,276.37 c -11.65,0 -19.35,-9.12 -19.35,-20.37 0,-11.25 7.7,-20.37 19.35,-20.37 9.94,0 16,9.63 16,9.63 l 11.23,-7.51 c -3.25,-5 -7,-8 -12.12,-11.1 A 28.62,28.62 0 0 0 443,222.5 c -19.39,0 -34.2,14.56 -34.29,33.5 0.09,18.94 14.9,33.5 34.29,33.5 a 28.62,28.62 0 0 0 14.59,-4.15 c 5.12,-3.09 8.87,-6.1 12.12,-11.1 l -11.23,-7.51 c 0,0 -6,9.63 -15.94,9.63 z"
         transform="translate(-34.25,-182.5)"
         id="path20" />
      <path
         id="path3000"
         class="cls-1"
         d="m 275,222.5 a 33,33 0 0 0 -33.53,33.23 c 0,18.15 13.58,33.77 33.76,33.77 18.27,0 33.24,-14 33.24,-33.38 0,-22.19 -17.41,-33.62 -33.47,-33.62 z m 0.19,13.16 c 9.61,0 18.71,7.8 18.71,20.37 0,12.3 -9.06,20.32 -18.75,20.32 -10.65,0 -19,-8.56 -19,-20.42 0,-11.6 8.29,-20.27 19.09,-20.27 z"
         transform="translate(-34.25,-182.5)" />
    </g>
  </g>
</svg>
