<?xml version="1.0" encoding="UTF-8" standalone="no"?>
<svg
   xmlns:dc="http://purl.org/dc/elements/1.1/"
   xmlns:cc="http://creativecommons.org/ns#"
   xmlns:rdf="http://www.w3.org/1999/02/22-rdf-syntax-ns#"
   xmlns:svg="http://www.w3.org/2000/svg"
   xmlns="http://www.w3.org/2000/svg"
   xmlns:sodipodi="http://sodipodi.sourceforge.net/DTD/sodipodi-0.dtd"
   xmlns:inkscape="http://www.inkscape.org/namespaces/inkscape"
   version="1.1"
   id="Layer_1"
   x="0px"
   y="0px"
   viewBox="0 0 153.211 153.211"
   xml:space="preserve"
   sodipodi:docname="spring-logo.svg"
   width="153.211"
   height="153.211"
   inkscape:version="1.0.2-2 (e86c870879, 2021-01-15)"><metadata
   id="metadata33"><rdf:RDF><cc:Work
       rdf:about=""><dc:format>image/svg+xml</dc:format><dc:type
         rdf:resource="http://purl.org/dc/dcmitype/StillImage" /><dc:title></dc:title></cc:Work></rdf:RDF></metadata><defs
   id="defs31" /><sodipodi:namedview
   pagecolor="#ffffff"
   bordercolor="#666666"
   borderopacity="1"
   objecttolerance="10"
   gridtolerance="10"
   guidetolerance="10"
   inkscape:pageopacity="0"
   inkscape:pageshadow="2"
   inkscape:window-width="2560"
   inkscape:window-height="1377"
   id="namedview29"
   showgrid="false"
   inkscape:zoom="3.3509934"
   inkscape:cx="188.75"
   inkscape:cy="48.549999"
   inkscape:window-x="-8"
   inkscape:window-y="-8"
   inkscape:window-maximized="1"
   inkscape:current-layer="g910" />
<style
   type="text/css"
   id="style2">
	.st0{fill:#6DB33F;}
	.st1{fill:#FFFFFF;}
</style>








<g
   id="g910"
   transform="matrix(1,0,0,0.99999888,-72.670548,0.0196483)"><path
     class="st0"
     d="m 189.16975,9.7000048 c -1.3,3.1999992 -3.1,6.2999992 -5.2,9.0999992 -18.6,-19.29999954 -49.3,-19.79999954 -68.5,-1.2 -19.199999,18.6 -19.799999,49.3 -1.2,68.5 0.6,0.7 1.3,1.3 2,1.9 l 1.8,1.6 c 20.4,17.199996 51,14.599996 68.2,-5.8 6.6,-7.8 10.6,-17.6 11.3,-27.8 1.4,-12.1 -2.3,-27.7 -8.4,-46.2999992 z m -65.9,78.7999992 c -1.4,1.8 -4,2 -5.8,0.6 -1.8,-1.4 -2,-4 -0.6,-5.8 1.4,-1.8 4,-2 5.8,-0.6 1.7,1.4 2,4 0.6,5.8 z m 65.6,-14.5 c -11.9,15.9 -37.5,10.5 -53.8,11.3 0,0 -2.9,0.2 -5.8,0.6 0,0 1.1,-0.5 2.5,-1 11.5,-4 16.9,-4.8 23.9,-8.4 13.1,-6.7 26.2,-21.4 28.8,-36.6 -5,14.6 -20.2,27.2 -34,32.3 -9.5,3.5 -26.6,6.9 -26.6,6.9 l -0.7,-0.4 c -11.6,-5.7 -12,-30.9 9.2,-39 9.3,-3.6 18.1,-1.6 28.2,-4 10.7,-2.5 23.1,-10.5 28.1,-21 5.6,16.9 12.4,43.1 0.2,59.3 z"
     id="path4" /><g
     id="g898"
     transform="matrix(0.53209072,0,0,0.53209072,16.282207,102.89963)"><path
       class="st0"
       d="m 124.4,67.6 c -1.3,-0.8 -2.1,-2.2 -2,-3.7 0,-2.4 1.9,-4.4 4.3,-4.4 0,0 0,0 0.1,0 0.8,0 1.6,0.2 2.3,0.6 4,2.8 8.7,4.3 13.5,4.5 4.6,0 7.3,-2 7.3,-5.1 v -0.2 c 0,-3.7 -5,-4.9 -10.5,-6.6 -6.9,-2 -14.7,-4.8 -14.7,-13.8 v -0.2 c 0,-8.9 7.4,-14.3 16.7,-14.3 5.2,0.1 10.2,1.4 14.8,3.8 1.6,0.8 2.6,2.3 2.6,4.1 0,2.4 -2,4.4 -4.4,4.4 h -0.1 c -0.7,0 -1.4,-0.2 -2.1,-0.5 -3.4,-1.9 -7.1,-3 -11,-3.2 -4.2,0 -6.6,2 -6.6,4.6 v 0.2 c 0,3.5 5.1,4.9 10.6,6.7 6.9,2.1 14.6,5.3 14.6,13.7 v 0.2 c 0,9.9 -7.7,14.8 -17.4,14.8 -6.4,-0.1 -12.7,-2 -18,-5.6 z"
       id="path6" /><path
       class="st0"
       d="m 163.8,29.9 c -0.1,-2.9 2.3,-5.3 5.2,-5.4 h 0.1 c 3,0 5.4,2.4 5.4,5.4 v 0 3.2 c 3.5,-4.9 8.4,-8.8 16,-8.8 11,0 21.8,8.7 21.8,24.4 v 0.2 c 0,15.6 -10.7,24.4 -21.8,24.4 -7.8,0 -12.7,-3.9 -16,-8.3 v 16.6 c 0,3 -2.4,5.4 -5.4,5.4 v 0 c -2.9,0 -5.3,-2.4 -5.3,-5.3 v -0.1 z m 37.7,19 v -0.2 c 0,-9.1 -6.1,-15 -13.4,-15 -7.3,0 -13.7,6.1 -13.7,15 v 0.2 c 0,9 6.4,15 13.7,15 7.3,0 13.4,-5.7 13.4,-15 z"
       id="path8" /><path
       class="st0"
       d="m 216.5,29.9 c -0.1,-2.9 2.3,-5.3 5.2,-5.4 h 0.1 c 3,0 5.4,2.4 5.4,5.4 v 0 2.6 c 0.5,-4 7.1,-8 11.8,-8 2.7,-0.2 5.1,1.8 5.3,4.5 0,0.3 0,0.5 0,0.8 0,2.6 -1.8,4.8 -4.3,5.2 -7.7,1.3 -12.9,8 -12.9,17.3 v 15.5 c 0,3 -2.4,5.3 -5.4,5.3 -2.9,0 -5.3,-2.3 -5.3,-5.2 0,0 0,0 0,-0.1 z"
       id="path10" /><path
       class="st0"
       d="m 248.6,30 c -0.1,-2.9 2.3,-5.3 5.2,-5.4 h 0.1 c 3,0 5.4,2.4 5.4,5.4 v 0 37.9 c 0,3 -2.4,5.3 -5.4,5.3 -3,0 -5.3,-2.4 -5.3,-5.3 z"
       id="path12" /><path
       class="st0"
       d="m 264.8,30 c -0.1,-2.9 2.3,-5.3 5.2,-5.4 h 0.1 c 3,0 5.4,2.4 5.4,5.4 v 0 2.2 c 3.2,-5 8.8,-7.9 14.7,-7.7 10.6,0 16.7,7.1 16.7,18 v 25.3 c 0.1,2.9 -2.2,5.2 -5.1,5.3 -0.1,0 -0.1,0 -0.2,0 -2.9,0.1 -5.3,-2.3 -5.4,-5.2 v -0.1 -22 c 0,-7.3 -3.6,-11.5 -10.1,-11.5 -6.2,0 -10.6,4.4 -10.6,11.7 v 21.9 c 0,3 -2.4,5.4 -5.4,5.4 -3,0 -5.4,-2.4 -5.4,-5.4 z"
       id="path14" /><path
       class="st0"
       d="m 354.3,24.4 c -3,0 -5.4,2.4 -5.4,5.4 v 0 3.2 c -3.5,-4.9 -8.4,-8.8 -16,-8.8 -11,0 -21.8,8.7 -21.8,24.4 v 0.2 c 0,15.6 10.7,24.4 21.8,24.4 7.8,0 12.7,-3.9 16,-8.2 -0.5,8.5 -5.7,12.9 -14.8,12.9 -5,0 -10,-1.2 -14.4,-3.7 -0.6,-0.3 -1.2,-0.4 -1.9,-0.4 -2.5,0 -4.5,1.9 -4.6,4.4 0,1.9 1.2,3.7 3,4.3 5.7,2.8 11.9,4.2 18.2,4.2 8.5,0 15.1,-2 19.3,-6.3 3.9,-3.9 6,-9.8 6,-17.7 V 29.9 c 0.1,-3 -2.3,-5.4 -5.3,-5.5 0,0 -0.1,0 -0.1,0 z M 335.4,63.9 C 328,63.9 322,58.1 322,48.8 v -0.2 c 0,-9.1 6.1,-15 13.4,-15 7.3,0 13.7,6.1 13.7,15 v 0.2 c 0.1,9 -6.3,15.1 -13.7,15.1 z"
       id="path16" /><path
       class="st0"
       d="m 259.4,11.6 c 0,3 -2.4,5.4 -5.4,5.4 -3,0 -5.4,-2.4 -5.4,-5.4 0,-3 2.4,-5.4 5.4,-5.4 v 0 c 2.9,-0.1 5.3,2.3 5.4,5.2 0,0.1 0,0.1 0,0.2 z"
       id="path18" /><path
       class="st0"
       d="m 372,35.7 c -3,0 -5.5,-2.5 -5.5,-5.5 0,-3 2.5,-5.5 5.5,-5.5 3,0 5.5,2.5 5.5,5.5 0,3 -2.5,5.5 -5.5,5.5 z m 0,-10.2 c -2.6,0 -4.7,2.1 -4.7,4.7 0,2.6 2.1,4.7 4.7,4.7 2.6,0 4.7,-2.1 4.7,-4.7 0,-2.6 -2,-4.7 -4.6,-4.7 z m 1.5,7.8 -1.6,-2.5 h -1.1 v 2.5 h -0.9 V 27 h 2.6 c 1.1,-0.1 2,0.8 2.1,1.9 v 0 c 0,0.9 -0.7,1.7 -1.6,1.9 l 1.7,2.5 z m -1.1,-5.5 h -1.6 V 30 h 1.7 c 0.6,0 1.1,-0.5 1.1,-1.1 0,-0.6 -0.5,-1.1 -1.2,-1.1 z"
       id="path20" /></g></g>



</svg>
