<?xml version="1.0" encoding="UTF-8" standalone="no"?>
<svg
   xmlns:dc="http://purl.org/dc/elements/1.1/"
   xmlns:cc="http://creativecommons.org/ns#"
   xmlns:rdf="http://www.w3.org/1999/02/22-rdf-syntax-ns#"
   xmlns:svg="http://www.w3.org/2000/svg"
   xmlns="http://www.w3.org/2000/svg"
   xmlns:sodipodi="http://sodipodi.sourceforge.net/DTD/sodipodi-0.dtd"
   xmlns:inkscape="http://www.inkscape.org/namespaces/inkscape"
   version="1.1"
   id="mdi-alpha-p-box"
   width="24"
   height="24"
   viewBox="0 0 24 24"
   sodipodi:docname="favicon.svg"
   inkscape:version="1.0.2-2 (e86c870879, 2021-01-15)">
  <metadata
     id="metadata9">
    <rdf:RDF>
      <cc:Work
         rdf:about="">
        <dc:format>image/svg+xml</dc:format>
        <dc:type
           rdf:resource="http://purl.org/dc/dcmitype/StillImage" />
      </cc:Work>
    </rdf:RDF>
  </metadata>
  <defs
     id="defs7" />
  <sodipodi:namedview
     pagecolor="#ffffff"
     bordercolor="#666666"
     borderopacity="1"
     objecttolerance="10"
     gridtolerance="10"
     guidetolerance="10"
     inkscape:pageopacity="0"
     inkscape:pageshadow="2"
     inkscape:window-width="2560"
     inkscape:window-height="1377"
     id="namedview5"
     showgrid="false"
     inkscape:zoom="21"
     inkscape:cx="-0.073033112"
     inkscape:cy="18.937131"
     inkscape:window-x="-8"
     inkscape:window-y="-8"
     inkscape:window-maximized="1"
     inkscape:current-layer="layer1"
     inkscape:document-rotation="0" />
  <g
     inkscape:groupmode="layer"
     id="layer2"
     inkscape:label="sfondo">
    <rect
       style="fill:#ffffff;fill-opacity:1;stroke:none;stroke-width:1.01267;stroke-miterlimit:4;stroke-dasharray:none"
       id="rect830"
       width="15"
       height="15"
       x="4.5"
       y="4.5" />
  </g>
  <g
     inkscape:groupmode="layer"
     id="layer1"
     inkscape:label="logo">
    <path
       d="m 9,7 v 10 h 2 v -4 h 2 a 2,2 0 0 0 2,-2 V 9 A 2,2 0 0 0 13,7 H 9 m 2,2 h 2 v 2 H 11 V 9 M 5,3 h 14 a 2,2 0 0 1 2,2 v 14 a 2,2 0 0 1 -2,2 H 5 A 2,2 0 0 1 3,19 V 5 A 2,2 0 0 1 5,3 Z"
       id="path2" />
  </g>
</svg>
