<?xml version="1.0" encoding="UTF-8" standalone="no"?>
<svg
   viewBox="0 0 24 24"
   version="1.1"
   id="svg4"
   sodipodi:docname="downlaod-png.svg"
   inkscape:version="1.1.1 (3bf5ae0d25, 2021-09-20)"
   xmlns:inkscape="http://www.inkscape.org/namespaces/inkscape"
   xmlns:sodipodi="http://sodipodi.sourceforge.net/DTD/sodipodi-0.dtd"
   xmlns="http://www.w3.org/2000/svg"
   xmlns:svg="http://www.w3.org/2000/svg">
  <defs
     id="defs8" />
  <sodipodi:namedview
     id="namedview6"
     pagecolor="#ffffff"
     bordercolor="#666666"
     borderopacity="1.0"
     inkscape:pageshadow="2"
     inkscape:pageopacity="0.0"
     inkscape:pagecheckerboard="0"
     showgrid="false"
     inkscape:zoom="12.860505"
     inkscape:cx="9.1753784"
     inkscape:cy="5.3263849"
     inkscape:window-width="1655"
     inkscape:window-height="1088"
     inkscape:window-x="26"
     inkscape:window-y="23"
     inkscape:window-maximized="0"
     inkscape:current-layer="svg4" />
  <g
     id="g64213"
     transform="translate(0.07775712,-0.8223696)">
    <path
       fill="#6563ff"
       d="M 18.922243,14.840017 H 4.9222426 c -1.3333328,0 -1.3333328,2 0,2 H 18.922243 c 1.333333,0 1.333333,-2 0,-2 z m -7.71,-2.29 c 0.0951,0.09104 0.207249,0.162406 0.33,0.21 0.24204,0.106977 0.51796,0.106977 0.76,0 0.122751,-0.04759 0.234896,-0.118959 0.33,-0.21 l 4,-4.0000002 c 0.946666,-0.946666 -0.473334,-2.366666 -1.42,-1.42 l -2.29,2.3 v -5.59 c 0,-1.3333328 -2,-1.3333328 -2,0 v 5.59 l -2.2900004,-2.3 c -0.9466663,-0.946666 -2.3666663,0.473334 -1.42,1.42 z"
       id="path2"
       sodipodi:nodetypes="sssssccccsccssccsc" />
    <g
       id="g64206">
      <path
         style="color:#000000;font-weight:600;font-size:5.33333px;font-family:Montserrat;-inkscape-font-specification:'Montserrat Light';letter-spacing:0.6px;fill:#6563ff;stroke:none;stroke-width:0.9;stroke-linecap:butt;stroke-linejoin:miter;-inkscape-stroke:none"
         d="M 5.7988281,18.144531 A 0.45004499,0.45004499 0 0 0 5.3496094,18.59375 v 3.734375 a 0.45004499,0.45004499 0 0 0 0.4492187,0.449219 h 0.2734375 a 0.45004499,0.45004499 0 0 0 0.4492188,-0.449219 v -0.771484 h 0.6171875 c 0.5397872,0 1.0240367,-0.1325 1.390625,-0.435547 a 0.45004499,0.45004499 0 0 0 0.00195,-0.002 c 0.3654319,-0.306963 0.5605469,-0.774196 0.5605469,-1.267579 0,-0.495095 -0.1935645,-0.961111 -0.5605469,-1.265625 -4.667e-4,-3.92e-4 -0.00149,3.92e-4 -0.00195,0 C 8.163236,18.279145 7.678906,18.144531 7.1386719,18.144531 Z m 0.7226563,1.144531 h 0.6171875 c 0.3312572,10e-7 0.5184609,0.07318 0.6210937,0.160157 a 0.45004499,0.45004499 0 0 0 0.00391,0.002 c 0.1044482,0.08675 0.1503906,0.174088 0.1503906,0.40039 0,0.226303 -0.045942,0.315599 -0.1503906,0.402344 -0.1021136,0.08481 -0.2924033,0.15625 -0.625,0.15625 H 6.5214844 Z"
         id="path63934" />
      <path
         style="color:#000000;font-weight:600;font-size:5.33333px;font-family:Montserrat;-inkscape-font-specification:'Montserrat Light';letter-spacing:0.6px;fill:#6563ff;stroke:none;stroke-width:0.9;stroke-linecap:butt;stroke-linejoin:miter;-inkscape-stroke:none"
         d="M 10.160156,18.144531 A 0.45004499,0.45004499 0 0 0 9.7089844,18.59375 v 3.734375 a 0.45004499,0.45004499 0 0 0 0.4511716,0.449219 h 0.271485 a 0.45004499,0.45004499 0 0 0 0.449218,-0.449219 v -1.943359 l 1.740235,2.220703 a 0.45004499,0.45004499 0 0 0 0.353515,0.171875 h 0.22461 a 0.45004499,0.45004499 0 0 0 0.451172,-0.449219 V 18.59375 a 0.45004499,0.45004499 0 0 0 -0.451172,-0.449219 h -0.271485 a 0.45004499,0.45004499 0 0 0 -0.449218,0.449219 v 1.939453 l -1.734375,-2.216797 a 0.45004499,0.45004499 0 0 0 -0.355469,-0.171875 z"
         id="path63940" />
      <path
         style="color:#000000;font-weight:600;font-size:5.33333px;font-family:Montserrat;-inkscape-font-specification:'Montserrat Light';letter-spacing:0.6px;fill:#6563ff;stroke:none;stroke-width:0.9;stroke-linecap:butt;stroke-linejoin:miter;-inkscape-stroke:none"
         d="m 16.701172,18.117187 c -0.439047,0 -0.856661,0.09929 -1.224609,0.300782 a 0.45004499,0.45004499 0 0 0 -0.002,0 c -0.360892,0.200012 -0.657574,0.488074 -0.867187,0.841797 a 0.45004499,0.45004499 0 0 0 -0.002,0.0039 c -0.20786,0.358225 -0.3125,0.768353 -0.3125,1.197265 0,0.428913 0.10464,0.837088 0.3125,1.195313 a 0.45004499,0.45004499 0 0 0 0.002,0.0039 c 0.209613,0.353722 0.506296,0.641784 0.867187,0.841797 a 0.45004499,0.45004499 0 0 0 0.002,0.002 c 0.367288,0.201134 0.782626,0.300781 1.218749,0.300781 0.306159,0 0.604242,-0.04942 0.884766,-0.148437 0.288194,-0.100431 0.546827,-0.253351 0.759766,-0.457031 a 0.45004499,0.45004499 0 0 0 0.138672,-0.326172 v -1.396485 a 0.45004499,0.45004499 0 0 0 -0.449219,-0.449218 h -0.261719 a 0.45004499,0.45004499 0 0 0 -0.449219,0.449218 v 0.986329 c -0.169598,0.09869 -0.338633,0.189453 -0.611328,0.189453 -0.251712,0 -0.457106,-0.05204 -0.642578,-0.154297 l -0.0039,-0.002 c -0.189297,-0.108554 -0.327797,-0.244646 -0.4375,-0.425782 -0.105786,-0.183811 -0.158203,-0.37581 -0.158203,-0.609375 0,-0.238643 0.05352,-0.43064 0.158203,-0.609375 a 0.45004499,0.45004499 0 0 0 0,-0.0039 c 0.106545,-0.184504 0.242142,-0.317155 0.429687,-0.421875 0.19121,-0.104772 0.400964,-0.158203 0.654297,-0.158203 0.189211,0 0.346416,0.02775 0.482422,0.07813 a 0.45004499,0.45004499 0 0 0 0.0098,0.0039 c 0.12923,0.04464 0.244368,0.115463 0.357422,0.228516 a 0.45004499,0.45004499 0 0 0 0.644531,-0.0098 l 0.171875,-0.18164 a 0.45004499,0.45004499 0 0 0 -0.0059,-0.623047 C 18.156689,18.548598 17.898985,18.38576 17.611328,18.279297 h -0.002 c -0.282483,-0.10919 -0.588508,-0.16211 -0.908203,-0.16211 z"
         id="path63946" />
    </g>
  </g>
</svg>
